<svg data-v-fde0c5aa="" xmlns="http://www.w3.org/2000/svg" viewBox="0 0 300 300" class="font"><!----><defs data-v-fde0c5aa=""><!----></defs><rect data-v-fde0c5aa="" fill="transparent" x="0" y="0" width="300px" height="300px" class="logo-background-square"></rect><defs data-v-fde0c5aa=""><!----></defs><g data-v-fde0c5aa="" id="daf5fa4a-9cb5-487f-ae57-a7a4a04e45da" fill="#488eff" transform="matrix(4.615061691742545,0,0,4.615061691742545,31.785190320736245,105.00314960582664)"><path d="M6.29 3.61L6.29 3.61Q5.33 3.61 4.93 4.03L4.93 4.03L4.93 4.03Q4.52 4.45 4.52 5.52L4.52 5.52L4.52 7L7.15 7L7.15 7.90L4.52 7.90L4.52 14L3.53 14L3.53 7.90L1.78 7.90L1.78 7L3.53 7L3.53 5.24L3.53 5.24Q3.53 4.02 4.24 3.36L4.24 3.36L4.24 3.36Q4.96 2.70 6.19 2.70L6.19 2.70L6.19 2.70Q6.99 2.70 7.52 2.88L7.52 2.88L7.21 3.74L7.21 3.74Q6.87 3.61 6.29 3.61L6.29 3.61ZM16.20 13.51L15.51 14.17L14.64 13.30L14.64 13.30Q14.27 13.65 13.67 13.90L13.67 13.90L13.67 13.90Q13.08 14.15 12.26 14.15L12.26 14.15L12.26 14.15Q10.91 14.15 10.23 13.59L10.23 13.59L10.23 13.59Q9.55 13.02 9.55 11.86L9.55 11.86L9.55 11.86Q9.55 10.68 10.27 10.13L10.27 10.13L10.27 10.13Q10.99 9.58 12.57 9.58L12.57 9.58L14.35 9.58L14.35 8.97L14.35 8.97Q14.35 8.32 13.90 8.03L13.90 8.03L13.90 8.03Q13.45 7.74 12.59 7.74L12.59 7.74L12.59 7.74Q11.24 7.74 10.70 8.36L10.70 8.36L10.01 7.69L10.01 7.69Q10.39 7.31 11.07 7.07L11.07 7.07L11.07 7.07Q11.76 6.83 12.68 6.83L12.68 6.83L12.68 6.83Q13.90 6.83 14.62 7.32L14.62 7.32L14.62 7.32Q15.34 7.81 15.34 8.75L15.34 8.75L15.34 12.66L16.20 13.51ZM10.56 11.86L10.56 11.86Q10.56 12.63 11.03 12.94L11.03 12.94L11.03 12.94Q11.49 13.26 12.49 13.26L12.49 13.26L12.49 13.26Q13.03 13.26 13.55 13.02L13.55 13.02L13.55 13.02Q14.07 12.78 14.35 12.45L14.35 12.45L14.35 10.47L13.02 10.47L13.02 10.47Q12.03 10.47 11.51 10.58L11.51 10.58L11.51 10.58Q10.99 10.68 10.77 10.98L10.77 10.98L10.77 10.98Q10.56 11.27 10.56 11.86L10.56 11.86ZM23.09 7L24.25 7L21.84 14L21.84 14Q21.36 15.27 20.67 15.98L20.67 15.98L20.67 15.98Q19.98 16.69 19.12 16.69L19.12 16.69L19.12 16.69Q18.73 16.69 18.40 16.59L18.40 16.59L18.72 15.72L18.72 15.72Q18.75 15.74 18.84 15.76L18.84 15.76L18.84 15.76Q18.93 15.78 19.05 15.78L19.05 15.78L19.05 15.78Q19.67 15.78 20.08 15.33L20.08 15.33L20.08 15.33Q20.50 14.88 20.89 13.92L20.89 13.92L18.38 7L19.54 7L21.34 12.59L23.09 7ZM29.43 14.15L29.43 14.15Q28.53 14.15 27.70 13.87L27.70 13.87L27.70 13.87Q26.87 13.59 26.45 13.05L26.45 13.05L27.33 12.46L27.33 12.46Q27.57 12.81 28.19 13.03L28.19 13.03L28.19 13.03Q28.81 13.24 29.46 13.24L29.46 13.24L29.46 13.24Q30.23 13.24 30.79 12.96L30.79 12.96L30.79 12.96Q31.36 12.67 31.36 12.07L31.36 12.07L31.36 12.07Q31.36 11.58 30.86 11.32L30.86 11.32L30.86 11.32Q30.35 11.06 29.93 10.96L29.93 10.96L29.93 10.96Q29.50 10.85 29.41 10.82L29.41 10.82L29.41 10.82Q28.74 10.64 28.22 10.45L28.22 10.45L28.22 10.45Q27.71 10.26 27.24 9.82L27.24 9.82L27.24 9.82Q26.77 9.38 26.77 8.69L26.77 8.69L26.77 8.69Q26.77 8.06 27.20 7.64L27.20 7.64L27.20 7.64Q27.62 7.22 28.27 7.03L28.27 7.03L28.27 7.03Q28.91 6.83 29.55 6.83L29.55 6.83L29.55 6.83Q30.35 6.83 31.08 7.13L31.08 7.13L31.08 7.13Q31.81 7.42 32.16 7.97L32.16 7.97L31.30 8.53L31.30 8.53Q31.07 8.13 30.56 7.94L30.56 7.94L30.56 7.94Q30.06 7.74 29.55 7.74L29.55 7.74L29.55 7.74Q28.95 7.74 28.40 7.99L28.40 7.99L28.40 7.99Q27.85 8.23 27.85 8.75L27.85 8.75L27.85 8.75Q27.85 9.18 28.28 9.41L28.28 9.41L28.28 9.41Q28.71 9.65 29.09 9.75L29.09 9.75L29.09 9.75Q29.47 9.86 29.57 9.88L29.57 9.88L29.57 9.88Q29.67 9.91 30.44 10.10L30.44 10.10L30.44 10.10Q31.22 10.29 31.83 10.80L31.83 10.80L31.83 10.80Q32.44 11.31 32.44 12.01L32.44 12.01L32.44 12.01Q32.44 12.73 32.00 13.21L32.00 13.21L32.00 13.21Q31.56 13.69 30.87 13.92L30.87 13.92L30.87 13.92Q30.18 14.15 29.43 14.15L29.43 14.15ZM38.36 6.83L38.36 6.83Q39.68 6.83 40.33 7.73L40.33 7.73L40.33 7.73Q40.99 8.62 40.99 10.51L40.99 10.51L40.99 10.51Q40.99 12.38 40.27 13.27L40.27 13.27L40.27 13.27Q39.55 14.15 38.22 14.15L38.22 14.15L38.22 14.15Q36.78 14.15 36.02 13.08L36.02 13.08L36.02 16.80L35.01 16.80L35.01 7L35.84 7L36.02 7.99L36.02 8.13L36.02 8.13Q36.41 7.53 37.02 7.18L37.02 7.18L37.02 7.18Q37.62 6.83 38.36 6.83L38.36 6.83ZM38.04 13.24L38.04 13.24Q39.05 13.24 39.52 12.59L39.52 12.59L39.52 12.59Q39.98 11.93 39.98 10.51L39.98 10.51L39.98 10.51Q39.98 9.06 39.57 8.40L39.57 8.40L39.57 8.40Q39.16 7.74 38.18 7.74L38.18 7.74L38.18 7.74Q37.60 7.74 37.14 8.03L37.14 8.03L37.14 8.03Q36.68 8.32 36.39 8.72L36.39 8.72L36.39 8.72Q36.11 9.13 36.02 9.49L36.02 9.49L36.02 11.68L36.02 11.68Q36.11 12.03 36.36 12.38L36.36 12.38L36.36 12.38Q36.61 12.74 37.04 12.99L37.04 12.99L37.04 12.99Q37.46 13.24 38.04 13.24L38.04 13.24ZM48.29 7L49.45 7L47.04 14L47.04 14Q46.56 15.27 45.87 15.98L45.87 15.98L45.87 15.98Q45.18 16.69 44.32 16.69L44.32 16.69L44.32 16.69Q43.93 16.69 43.60 16.59L43.60 16.59L43.92 15.72L43.92 15.72Q43.95 15.74 44.04 15.76L44.04 15.76L44.04 15.76Q44.13 15.78 44.25 15.78L44.25 15.78L44.25 15.78Q44.87 15.78 45.28 15.33L45.28 15.33L45.28 15.33Q45.70 14.88 46.09 13.92L46.09 13.92L43.58 7L44.74 7L46.54 12.59L48.29 7Z"></path></g><!----><!----></svg>